<svg xmlns="http://www.w3.org/2000/svg" viewBox="0 0 32 32" role="img" aria-label="Hecate">
  <defs>
    <radialGradient id="glow" cx="50%" cy="50%" r="50%">
      <stop offset="0%" stop-color="#ffffff"/>
      <stop offset="45%" stop-color="#6ea8fe"/>
      <stop offset="100%" stop-color="#6ea8fe" stop-opacity="0"/>
    </radialGradient>
  </defs>
  <rect width="32" height="32" rx="6" fill="#0f1419"/>
  <circle cx="16" cy="16" r="4.5" fill="url(#glow)" opacity="0.9"/>
  <circle cx="16" cy="16" r="1.6" fill="#ffffff"/>
  <g fill="none" stroke="#6ea8fe" stroke-width="1.4" stroke-linecap="round">
    <path d="M16 11.5 A4.5 4.5 0 0 1 19.9 19.5"/>
    <path d="M20.5 16 A4.5 4.5 0 0 1 12.5 19.9"/>
    <path d="M11.5 16 A4.5 4.5 0 0 1 16 11.5"/>
  </g>
  <g fill="none" stroke="#6ea8fe" stroke-width="1.1" stroke-linecap="round">
    <line x1="16" y1="16" x2="18.8" y2="12.1"/>
    <line x1="16" y1="16" x2="12.1" y2="17.8"/>
    <line x1="16" y1="16" x2="17.8" y2="20.5"/>
  </g>
  <g fill="none" stroke="#6ea8fe" stroke-width="1.2">
    <circle cx="18.8" cy="12.1" r="1.3"/>
    <circle cx="12.1" cy="17.8" r="1.3"/>
    <circle cx="17.8" cy="20.5" r="1.3"/>
  </g>
</svg>
